<?xml version="1.0" encoding="UTF-8"?>
<svg width="512" height="512" viewBox="0 0 512 512" fill="none" xmlns="http://www.w3.org/2000/svg">
  <rect width="512" height="512" fill="#fefce8"/>
  <path d="M256 96C212.8 96 176 132.8 176 176C176 219.2 212.8 256 256 256C299.2 256 336 219.2 336 176C336 132.8 299.2 96 256 96Z" fill="#000000"/>
  <path d="M368 256H144C99.84 256 64 291.84 64 336V384C64 401.68 78.32 416 96 416H416C433.68 416 448 401.68 448 384V336C448 291.84 412.16 256 368 256Z" fill="#000000"/>
</svg>